<?xml version="1.0" encoding="UTF-8" standalone="no"?>
<!DOCTYPE svg PUBLIC "-//W3C//DTD SVG 1.1//EN" "http://www.w3.org/Graphics/SVG/1.1/DTD/svg11.dtd">
<svg version="1.1" xmlns="http://www.w3.org/2000/svg" xmlns:xlink="http://www.w3.org/1999/xlink" preserveAspectRatio="xMidYMid meet" viewBox="204.45259509530814 133.6337792642139 239.3777570914953 176.8076923076925" width="234.88" height="172.31"><defs><path d="M335.45 135.42L340.08 135.77L344.65 136.26L349.16 136.89L353.61 137.64L357.99 138.52L362.31 139.53L366.54 140.66L370.7 141.91L374.78 143.28L378.77 144.76L382.68 146.35L386.49 148.05L390.2 149.86L393.81 151.77L397.32 153.78L400.73 155.88L404.02 158.09L407.19 160.38L410.25 162.76L413.18 165.23L415.99 167.79L418.67 170.42L421.21 173.13L423.62 175.92L425.89 178.78L428.01 181.71L429.98 184.71L431.8 187.77L433.47 190.89L434.97 194.07L436.32 197.3L437.49 200.59L438.5 203.93L439.33 207.32L439.98 210.75L440.45 214.23L440.73 217.74L440.83 221.29L440.73 224.84L440.45 228.35L439.98 231.82L439.33 235.25L438.5 238.64L437.49 241.98L436.32 245.27L434.97 248.51L433.47 251.69L431.8 254.81L429.98 257.87L428.01 260.87L425.89 263.8L423.62 266.66L421.21 269.44L418.67 272.16L415.99 274.79L413.18 277.34L410.25 279.81L407.19 282.2L404.02 284.49L400.73 286.69L397.32 288.8L393.81 290.81L390.2 292.72L386.49 294.53L382.68 296.23L378.77 297.82L374.78 299.3L370.7 300.67L366.54 301.92L362.31 303.05L357.99 304.05L353.61 304.94L349.16 305.69L344.65 306.31L340.08 306.8L335.45 307.16L330.77 307.37L326.04 307.44L321.31 307.37L316.63 307.16L312 306.8L307.43 306.31L302.92 305.69L298.47 304.94L294.08 304.05L289.77 303.05L285.53 301.92L281.38 300.67L277.3 299.3L273.3 297.82L269.4 296.23L265.59 294.53L261.88 292.72L258.26 290.81L254.75 288.8L251.75 286.94L231.18 293.31L205.95 301.11L212.8 276L219.16 252.72L218.61 251.69L217.1 248.51L215.76 245.27L214.59 241.98L213.58 238.64L212.75 235.25L212.1 231.82L211.63 228.35L211.34 224.84L211.25 221.29L211.34 217.74L211.63 214.23L212.1 210.75L212.75 207.32L213.58 203.93L214.59 200.59L215.76 197.3L217.1 194.07L218.61 190.89L220.27 187.77L222.1 184.71L224.07 181.71L226.19 178.78L228.46 175.92L230.86 173.13L233.41 170.42L236.09 167.79L238.89 165.23L241.83 162.76L244.89 160.38L248.06 158.09L251.35 155.88L254.75 153.78L258.26 151.77L261.88 149.86L265.59 148.05L269.4 146.35L273.3 144.76L277.3 143.28L281.38 141.91L285.53 140.66L289.77 139.53L294.08 138.52L298.47 137.64L302.92 136.89L307.43 136.26L312 135.77L316.63 135.42L321.31 135.21L326.04 135.13L330.77 135.21L335.45 135.42Z" id="eBB3k7T7P"></path><path d="M271.21 199.05L272.12 199.29L273 199.63L273.87 200.06L274.72 200.58L275.02 200.8L274.41 201.35L273.66 202.26L273 203.33L272.44 204.54L271.98 205.87L271.64 207.31L271.43 208.84L271.36 210.44L271.43 212.04L271.64 213.57L271.98 215.01L272.44 216.35L273 217.56L273.66 218.63L274.41 219.54L275.23 220.28L276.12 220.83L277.06 221.17L278.05 221.29L279.04 221.17L279.98 220.83L280.87 220.28L281.69 219.54L282.44 218.63L283.1 217.56L283.66 216.35L283.77 216.88L284.06 218.4L284.3 219.97L284.49 221.56L284.63 223.19L284.71 224.85L284.74 226.54L284.71 228.22L284.63 229.88L284.49 231.51L284.3 233.11L284.06 234.67L283.77 236.2L283.44 237.68L283.06 239.12L282.64 240.51L282.17 241.85L281.66 243.14L281.12 244.38L280.53 245.55L279.92 246.67L279.26 247.71L278.58 248.7L277.86 249.61L277.12 250.45L276.34 251.21L275.54 251.89L274.72 252.5L273.87 253.01L273 253.44L272.12 253.78L271.21 254.03L270.29 254.18L269.35 254.23L268.42 254.18L267.49 254.03L266.59 253.78L265.7 253.44L264.83 253.01L263.99 252.5L263.16 251.89L262.36 251.21L261.59 250.45L260.85 249.61L260.13 248.7L259.44 247.71L258.79 246.67L258.17 245.55L257.59 244.38L257.04 243.14L256.54 241.85L256.07 240.51L255.65 239.12L255.27 237.68L254.93 236.2L254.64 234.67L254.41 233.11L254.22 231.51L254.08 229.88L254 228.22L253.97 226.54L254 224.85L254.08 223.19L254.22 221.56L254.41 219.97L254.64 218.4L254.93 216.88L255.27 215.4L255.65 213.96L256.07 212.57L256.54 211.22L257.04 209.93L257.59 208.7L258.17 207.53L258.79 206.41L259.44 205.36L260.13 204.38L260.85 203.47L261.59 202.63L262.36 201.87L263.16 201.18L263.99 200.58L264.83 200.06L265.7 199.63L266.59 199.29L267.49 199.05L268.42 198.9L269.35 198.85L270.29 198.9L271.21 199.05Z" id="i7meGajo2"></path><path d="M376.07 199.05L376.98 199.29L377.86 199.63L378.73 200.06L379.58 200.58L379.88 200.8L379.27 201.35L378.52 202.26L377.86 203.33L377.3 204.54L376.84 205.87L376.5 207.31L376.29 208.84L376.22 210.44L376.29 212.04L376.5 213.57L376.84 215.01L377.3 216.35L377.86 217.56L378.52 218.63L379.27 219.54L380.09 220.28L380.98 220.83L381.92 221.17L382.91 221.29L383.9 221.17L384.84 220.83L385.73 220.28L386.55 219.54L387.3 218.63L387.96 217.56L388.52 216.35L388.63 216.88L388.92 218.4L389.16 219.97L389.35 221.56L389.49 223.19L389.57 224.85L389.6 226.54L389.57 228.22L389.49 229.88L389.35 231.51L389.16 233.11L388.92 234.67L388.63 236.2L388.3 237.68L387.92 239.12L387.5 240.51L387.03 241.85L386.52 243.14L385.98 244.38L385.39 245.55L384.78 246.67L384.12 247.71L383.44 248.7L382.72 249.61L381.98 250.45L381.2 251.21L380.4 251.89L379.58 252.5L378.73 253.01L377.86 253.44L376.98 253.78L376.07 254.03L375.15 254.18L374.21 254.23L373.28 254.18L372.35 254.03L371.45 253.78L370.56 253.44L369.69 253.01L368.85 252.5L368.02 251.89L367.22 251.21L366.45 250.45L365.71 249.61L364.99 248.7L364.3 247.71L363.65 246.67L363.03 245.55L362.45 244.38L361.9 243.14L361.4 241.85L360.93 240.51L360.51 239.12L360.13 237.68L359.79 236.2L359.5 234.67L359.27 233.11L359.08 231.51L358.94 229.88L358.86 228.22L358.83 226.54L358.86 224.85L358.94 223.19L359.08 221.56L359.27 219.97L359.5 218.4L359.79 216.88L360.13 215.4L360.51 213.96L360.93 212.57L361.4 211.22L361.9 209.93L362.45 208.7L363.03 207.53L363.65 206.41L364.3 205.36L364.99 204.38L365.71 203.47L366.45 202.63L367.22 201.87L368.02 201.18L368.85 200.58L369.69 200.06L370.56 199.63L371.45 199.29L372.35 199.05L373.28 198.9L374.21 198.85L375.15 198.9L376.07 199.05Z" id="ajRqHltz2"></path><path d="M323.39 243.85C316.91 257.69 309.99 257.69 302.62 243.85" id="h5FIyLwQt"></path><path d="M344.16 243.85C337.68 257.69 330.76 257.69 323.39 243.85" id="a1RU6Gdqf4"></path><path d="M254.49 257.35L254.49 257.34L256.58 254.23L256.58 254.24L256.58 254.23L260.45 259.99L260.45 260L261.88 262.14L263.66 259.49L265.75 262.6L261.88 268.36L259.8 265.25L259.8 265.25L256.58 260.46L253.41 265.19L253.45 265.25L251.36 268.36L251.32 268.3L251.28 268.36L249.19 265.25L249.23 265.19L246.05 260.45L244.27 263.1L242.19 259.99L246.05 254.23L248.14 257.34L248.14 257.34L251.32 262.08L251.32 262.08L254.49 257.35Z" id="f2wcOnrsFD"></path><path d="M390.12 257.35L390.12 257.34L392.21 254.23L392.21 254.24L392.21 254.23L396.08 259.99L396.08 260L397.51 262.14L399.29 259.49L401.38 262.6L397.51 268.36L395.43 265.25L395.43 265.25L392.21 260.46L389.04 265.19L389.08 265.25L386.99 268.36L386.95 268.3L386.91 268.36L384.82 265.25L384.86 265.19L381.68 260.45L379.9 263.1L377.81 259.99L381.68 254.23L383.77 257.34L383.77 257.34L386.95 262.08L386.95 262.08L390.12 257.35Z" id="c4ZvgzvNPe"></path></defs><g><g><g><filter id="shadow15937521" x="196.95" y="126.13" width="253.88" height="191.31" filterUnits="userSpaceOnUse" primitiveUnits="userSpaceOnUse"><feFlood></feFlood><feComposite in2="SourceAlpha" operator="in"></feComposite><feGaussianBlur stdDeviation="1"></feGaussianBlur><feOffset dx="1" dy="1" result="afterOffset"></feOffset><feFlood flood-color="#000000" flood-opacity="0.5"></feFlood><feComposite in2="afterOffset" operator="in"></feComposite><feMorphology operator="dilate" radius="1"></feMorphology><feComposite in2="SourceAlpha" operator="out"></feComposite></filter><path d="M335.45 135.42L340.08 135.77L344.65 136.26L349.16 136.89L353.61 137.64L357.99 138.52L362.31 139.53L366.54 140.66L370.7 141.91L374.78 143.28L378.77 144.76L382.68 146.35L386.49 148.05L390.2 149.86L393.81 151.77L397.32 153.78L400.73 155.88L404.02 158.09L407.19 160.38L410.25 162.76L413.18 165.23L415.99 167.79L418.67 170.42L421.21 173.13L423.62 175.92L425.89 178.78L428.01 181.71L429.98 184.71L431.8 187.77L433.47 190.89L434.97 194.07L436.32 197.3L437.49 200.59L438.5 203.93L439.33 207.32L439.98 210.75L440.45 214.23L440.73 217.74L440.83 221.29L440.73 224.84L440.45 228.35L439.98 231.82L439.33 235.25L438.5 238.64L437.49 241.98L436.32 245.27L434.97 248.51L433.47 251.69L431.8 254.81L429.98 257.87L428.01 260.87L425.89 263.8L423.62 266.66L421.21 269.44L418.67 272.16L415.99 274.79L413.18 277.34L410.25 279.81L407.19 282.2L404.02 284.49L400.73 286.69L397.32 288.8L393.81 290.81L390.2 292.72L386.49 294.53L382.68 296.23L378.77 297.82L374.78 299.3L370.7 300.67L366.54 301.92L362.31 303.05L357.99 304.05L353.61 304.94L349.16 305.69L344.65 306.31L340.08 306.8L335.45 307.16L330.77 307.37L326.04 307.44L321.31 307.37L316.63 307.16L312 306.8L307.43 306.31L302.92 305.69L298.47 304.94L294.08 304.05L289.77 303.05L285.53 301.92L281.38 300.67L277.3 299.3L273.3 297.82L269.4 296.23L265.59 294.53L261.88 292.72L258.26 290.81L254.75 288.8L251.75 286.94L231.18 293.31L205.95 301.11L212.8 276L219.16 252.72L218.61 251.69L217.1 248.51L215.76 245.27L214.59 241.98L213.58 238.64L212.75 235.25L212.1 231.82L211.63 228.35L211.34 224.84L211.25 221.29L211.34 217.74L211.63 214.23L212.1 210.75L212.75 207.32L213.58 203.93L214.59 200.59L215.76 197.3L217.1 194.07L218.61 190.89L220.27 187.77L222.1 184.71L224.07 181.71L226.19 178.78L228.46 175.92L230.86 173.13L233.41 170.42L236.09 167.79L238.89 165.23L241.83 162.76L244.89 160.38L248.06 158.09L251.35 155.88L254.75 153.78L258.26 151.77L261.88 149.86L265.59 148.05L269.4 146.35L273.3 144.76L277.3 143.28L281.38 141.91L285.53 140.66L289.77 139.53L294.08 138.52L298.47 137.64L302.92 136.89L307.43 136.26L312 135.77L316.63 135.42L321.31 135.21L326.04 135.13L330.77 135.21L335.45 135.42Z" id="cCEBwZbbT" fill="white" fill-opacity="1" filter="url(#shadow15937521)"></path></g><use xlink:href="#eBB3k7T7P" opacity="1" fill="#ffffff" fill-opacity="1"></use><g><use xlink:href="#eBB3k7T7P" opacity="1" fill-opacity="0" stroke="#000000" stroke-width="3" stroke-opacity="1"></use></g><g><filter id="shadow3479768" x="196.95" y="126.13" width="253.88" height="191.31" filterUnits="userSpaceOnUse" primitiveUnits="userSpaceOnUse"><feFlood></feFlood><feComposite in2="SourceAlpha" operator="out"></feComposite><feGaussianBlur stdDeviation="1"></feGaussianBlur><feOffset dx="1" dy="1" result="afterOffset"></feOffset><feFlood flood-color="#ffffff" flood-opacity="0.8"></feFlood><feComposite in2="afterOffset" operator="in"></feComposite><feMorphology operator="dilate" radius="1"></feMorphology><feComposite in2="SourceAlpha" operator="in"></feComposite></filter><path d="M335.45 135.42L340.08 135.77L344.65 136.26L349.16 136.89L353.61 137.64L357.99 138.52L362.31 139.53L366.54 140.66L370.7 141.91L374.78 143.28L378.77 144.76L382.68 146.35L386.49 148.05L390.2 149.86L393.81 151.77L397.32 153.78L400.73 155.88L404.02 158.09L407.19 160.38L410.25 162.76L413.18 165.23L415.99 167.79L418.67 170.42L421.21 173.13L423.62 175.92L425.89 178.78L428.01 181.71L429.98 184.71L431.8 187.77L433.47 190.89L434.97 194.07L436.32 197.3L437.49 200.59L438.5 203.93L439.33 207.32L439.98 210.75L440.45 214.23L440.73 217.74L440.83 221.29L440.73 224.84L440.45 228.35L439.98 231.82L439.33 235.25L438.5 238.64L437.49 241.98L436.32 245.27L434.97 248.51L433.47 251.69L431.8 254.81L429.98 257.87L428.01 260.87L425.89 263.8L423.62 266.66L421.21 269.44L418.67 272.16L415.99 274.79L413.18 277.34L410.25 279.81L407.19 282.2L404.02 284.49L400.73 286.69L397.32 288.8L393.81 290.81L390.2 292.72L386.49 294.53L382.68 296.23L378.77 297.82L374.78 299.3L370.7 300.67L366.54 301.92L362.31 303.05L357.99 304.05L353.61 304.94L349.16 305.69L344.65 306.31L340.08 306.8L335.45 307.16L330.77 307.37L326.04 307.44L321.31 307.37L316.63 307.16L312 306.8L307.43 306.31L302.92 305.69L298.47 304.94L294.08 304.05L289.77 303.05L285.53 301.92L281.38 300.67L277.3 299.3L273.3 297.82L269.4 296.23L265.59 294.53L261.88 292.72L258.26 290.81L254.75 288.8L251.75 286.94L231.18 293.31L205.95 301.11L212.8 276L219.16 252.72L218.61 251.69L217.1 248.51L215.76 245.27L214.59 241.98L213.58 238.64L212.75 235.25L212.1 231.82L211.63 228.35L211.34 224.84L211.25 221.29L211.34 217.74L211.63 214.23L212.1 210.75L212.75 207.32L213.58 203.93L214.59 200.59L215.76 197.3L217.1 194.07L218.61 190.89L220.27 187.77L222.1 184.71L224.07 181.71L226.19 178.78L228.46 175.92L230.86 173.13L233.41 170.42L236.09 167.79L238.89 165.23L241.83 162.76L244.89 160.38L248.06 158.09L251.35 155.88L254.75 153.78L258.26 151.77L261.88 149.86L265.59 148.05L269.4 146.35L273.3 144.76L277.3 143.28L281.38 141.91L285.53 140.66L289.77 139.53L294.08 138.52L298.47 137.64L302.92 136.89L307.43 136.26L312 135.77L316.63 135.42L321.31 135.21L326.04 135.13L330.77 135.21L335.45 135.42Z" id="bVYLnhJBf" fill="white" fill-opacity="1" filter="url(#shadow3479768)"></path></g></g><g><use xlink:href="#i7meGajo2" opacity="1" fill="#000000" fill-opacity="1"></use></g><g><use xlink:href="#ajRqHltz2" opacity="1" fill="#000000" fill-opacity="1"></use></g><g><g><use xlink:href="#h5FIyLwQt" opacity="1" fill-opacity="0" stroke="#100a17" stroke-width="3" stroke-opacity="1"></use></g></g><g><g><use xlink:href="#a1RU6Gdqf4" opacity="1" fill-opacity="0" stroke="#100a17" stroke-width="3" stroke-opacity="1"></use></g></g><g><use xlink:href="#f2wcOnrsFD" opacity="1" fill="#d05353" fill-opacity="0.5"></use></g><g><use xlink:href="#c4ZvgzvNPe" opacity="1" fill="#d05353" fill-opacity="0.5"></use></g></g></svg>